Coordinates
version=1
nRows=17
nColumns=40
inDegrees=yes

Units are S.I. units (second, meters, Newtons, ...)
If the header above contains a line with 'inDegrees', this indicates whether rotational values are in degrees (yes) or radians (no).

endheader
time	pelvis_tilt	pelvis_list	pelvis_rotation	pelvis_tx	pelvis_ty	pelvis_tz	hip_flexion_r	hip_adduction_r	hip_rotation_r	knee_angle_r	knee_angle_r_beta	ankle_angle_r	subtalar_angle_r	mtp_angle_r	hip_flexion_l	hip_adduction_l	hip_rotation_l	knee_angle_l	knee_angle_l_beta	ankle_angle_l	subtalar_angle_l	mtp_angle_l	lumbar_extension	lumbar_bending	lumbar_rotation	arm_flex_r	arm_add_r	arm_rot_r	elbow_flex_r	pro_sup_r	wrist_flex_r	wrist_dev_r	arm_flex_l	arm_add_l	arm_rot_l	elbow_flex_l	pro_sup_l	wrist_flex_l	wrist_dev_l
      0.48000000	     -3.44446803	     -7.51222728	     89.76839052	      0.15540534	      0.90173968	      0.11649840	     38.13496397	     -2.46591523	     -5.51198648	      5.38608646	      0.09400494	      5.11087880	      0.00000000	     -0.00000000	    -14.05749865	      6.74615022	      2.24503322	     -5.06292101	     -0.08836464	      4.36641131	      0.00000000	      0.00000000	     -1.37181234	     -3.17970831	     -6.69211835	     -0.00000000	      0.00000000	      0.00000000	      0.00000000	      0.00000000	     -0.00000000	     -0.00000000	      0.00000000	     -0.00000000	     -0.00000000	      0.00000000	      0.00000000	      0.00000000	      0.00000000
      0.49000000	     -3.63379518	     -7.77521465	     89.80991534	      0.15612689	      0.89751028	      0.09645262	     38.75937861	     -2.42809512	     -5.60648540	      4.58412465	      0.08000807	      5.64950346	      0.00000000	      0.00000000	    -15.04681983	      6.82966864	      2.16931546	     -4.78572189	     -0.08352660	      4.59743211	      0.00000000	      0.00000000	     -0.91547555	     -3.35852114	     -6.95108925	      0.00000000	      0.00000000	      0.00000000	      0.00000000	      0.00000000	      0.00000000	      0.00000000	      0.00000000	      0.00000000	      0.00000000	      0.00000000	      0.00000000	      0.00000000	      0.00000000
      0.50000000	     -3.51243159	     -7.84881978	     89.83681050	      0.15711558	      0.89399663	      0.07616906	     38.89291366	     -2.05102479	     -5.23575018	      3.94408400	      0.06883725	      5.90913109	      0.00000000	      0.00000000	    -16.01694705	      6.55451765	      2.23685374	     -4.08804133	     -0.07134978	      4.72854280	      0.00000000	      0.00000000	     -0.66035045	     -3.18609080	     -6.98595228	      0.00000000	      0.00000000	      0.00000000	      0.00000000	      0.00000000	      0.00000000	      0.00000000	      0.00000000	      0.00000000	      0.00000000	      0.00000000	      0.00000000	      0.00000000	      0.00000000
      0.51000000	     -3.35263229	     -7.94456934	     89.85225418	      0.15815399	      0.89090392	      0.05585663	     39.05218249	     -1.68335844	     -5.20474956	      3.90190559	      0.06810110	      5.73245014	     -0.00000000	      0.00000000	    -16.68906144	      6.23734965	      1.84181625	     -2.95691093	     -0.05160783	      4.56851891	     -0.00000000	     -0.00000000	     -0.37947872	     -2.98610648	     -6.97881966	     -0.00000000	     -0.00000000	      0.00000000	      0.00000000	      0.00000000	     -0.00000000	      0.00000000	      0.00000000	      0.00000000	      0.00000000	      0.00000000	      0.00000000	     -0.00000000	     -0.00000000
      0.52000000	     -3.13551847	     -8.07987666	     89.86294994	      0.15923671	      0.88827541	      0.03547907	     39.22002314	     -1.29015595	     -5.20364155	      4.36101784	      0.07611412	      5.23940950	      0.00000000	      0.00000000	    -17.04841782	      5.83652756	      1.32946784	     -1.39649407	     -0.02437342	      4.09460104	      0.00000000	      0.00000000	     -0.05051369	     -2.71495419	     -6.93946619	      0.00000000	      0.00000000	      0.00000000	      0.00000000	      0.00000000	      0.00000000	      0.00000000	      0.00000000	      0.00000000	      0.00000000	      0.00000000	      0.00000000	      0.00000000	      0.00000000
      0.53000000	     -2.87888245	     -8.17266296	     89.87028638	      0.16032850	      0.88626342	      0.01502596	     39.29756088	     -0.89735526	     -5.32088234	      5.23062368	      0.09129161	      4.43966840	     -0.00000000	      0.00000000	    -17.17240639	      5.36504676	      0.68225691	      0.58696838	      0.01024453	      3.18971592	      0.00000000	     -0.00000000	      0.23733368	     -2.39056808	     -6.86858312	     -0.00000000	      0.00000000	     -0.00000000	      0.00000000	      0.00000000	      0.00000000	     -0.00000000	     -0.00000000	     -0.00000000	      0.00000000	      0.00000000	      0.00000000	     -0.00000000	      0.00000000
      0.54000000	     -2.51937730	     -8.25102590	     89.87286713	      0.16156272	      0.88484793	     -0.00558540	     39.30632200	     -0.42563124	     -5.43077960	      6.43956919	      0.11239168	      3.34917415	      0.00000000	      0.00000000	    -16.95403367	      4.73169417	     -0.26103890	      3.14274790	      0.05485130	      2.01832182	      0.00000000	      0.00000000	      0.52574193	     -1.96815996	     -6.73687387	      0.00000000	      0.00000000	      0.00000000	      0.00000000	      0.00000000	      0.00000000	      0.00000000	      0.00000000	      0.00000000	      0.00000000	      0.00000000	      0.00000000	      0.00000000	      0.00000000
      0.55000000	     -2.15920334	     -8.24709991	     89.87412223	      0.16279746	      0.88407620	     -0.02626696	     39.21551253	      0.00338317	     -5.60964141	      7.96680256	      0.13904694	      2.06386446	      0.00000000	      0.00000000	    -16.49216734	      4.03381785	     -1.21625984	      6.20196574	      0.10824472	      0.34760422	      0.00000000	      0.00000000	      0.72620645	     -1.54561468	     -6.58781018	      0.00000000	      0.00000000	      0.00000000	      0.00000000	      0.00000000	      0.00000000	      0.00000000	      0.00000000	      0.00000000	      0.00000000	      0.00000000	      0.00000000	      0.00000000	      0.00000000
      0.56000000	     -1.79548455	     -8.17830342	     89.87369541	      0.16408216	      0.88390897	     -0.04696168	     39.04526618	      0.40880007	     -5.77940450	      9.72366102	      0.16970990	      0.69150081	      0.00000000	      0.00000000	    -15.74168879	      3.25061180	     -2.19534845	      9.79791079	      0.17100580	     -1.72222926	      0.00000000	      0.00000000	      0.84762125	     -1.11411946	     -6.41746735	      0.00000000	      0.00000000	      0.00000000	      0.00000000	      0.00000000	      0.00000000	      0.00000000	      0.00000000	      0.00000000	      0.00000000	      0.00000000	      0.00000000	      0.00000000	      0.00000000
      0.57000000	     -1.40391422	     -8.05893914	     89.87094942	      0.16542040	      0.88426811	     -0.06761286	     38.79483989	      0.81873011	     -5.93976046	     11.61743119	      0.20276242	     -0.64145695	      0.00000000	      0.00000000	    -14.68353492	      2.35206702	     -3.12903154	     13.92901176	      0.24310712	     -4.12223663	      0.00000000	      0.00000000	      0.90550419	     -0.66673083	     -6.21512477	      0.00000000	      0.00000000	      0.00000000	      0.00000000	      0.00000000	      0.00000000	      0.00000000	      0.00000000	      0.00000000	      0.00000000	      0.00000000	      0.00000000	      0.00000000	      0.00000000
      0.58000000	     -0.98212206	     -7.89287670	     89.86715621	      0.16680831	      0.88507804	     -0.08816326	     38.47825866	      1.24089364	     -6.09834423	     13.60538568	      0.23745878	     -1.84717447	     -0.00000000	      0.00000000	    -13.37982706	      1.34202477	     -3.93339413	     18.44199471	      0.32187353	     -6.77527602	     -0.00000000	      0.00000000	      0.90017916	     -0.18892875	     -6.00338913	      0.00000000	      0.00000000	      0.00000000	      0.00000000	      0.00000000	     -0.00000000	      0.00000000	     -0.00000000	      0.00000000	      0.00000000	      0.00000000	      0.00000000	      0.00000000	      0.00000000
      0.59000000	     -0.52821143	     -7.76049353	     89.86148109	      0.16825202	      0.88618800	     -0.10845732	     38.13316394	      1.70035406	     -6.20752145	     15.52817462	      0.27101777	     -2.77949575	     -0.00000000	     -0.00000000	    -11.72168012	      0.25073668	     -4.48927260	     23.35055850	      0.40754413	     -9.33568254	      0.00000000	      0.00000000	      0.91292410	      0.31233105	     -5.78120695	      0.00000000	      0.00000000	     -0.00000000	      0.00000000	      0.00000000	      0.00000000	     -0.00000000	     -0.00000000	     -0.00000000	      0.00000000	      0.00000000	      0.00000000	      0.00000000	      0.00000000
      0.60000000	     -0.03057441	     -7.63375541	     89.85651353	      0.16973015	      0.88761439	     -0.12843200	     37.72038248	      2.21375523	     -6.29279321	     17.33893035	      0.30262142	     -3.39641255	      0.00000000	      0.00000000	     -9.83465520	     -0.89885042	     -4.79612043	     28.40819389	      0.49581652	    -11.71734519	      0.00000000	      0.00000000	      0.87834414	      0.85017296	     -5.49897009	      0.00000000	      0.00000000	      0.00000000	      0.00000000	      0.00000000	      0.00000000	      0.00000000	      0.00000000	      0.00000000	      0.00000000	      0.00000000	      0.00000000	      0.00000000	      0.00000000
      0.61000000	      0.50789754	     -7.56999362	     89.84766237	      0.17126061	      0.88925871	     -0.14806774	     37.25957818	      2.79444240	     -6.32914925	     18.93679066	      0.33050935	     -3.67212223	      0.00000000	     -0.00000000	     -7.68608692	     -2.06931264	     -4.84131414	     33.52028552	      0.58503935	    -13.61631165	      0.00000000	      0.00000000	      0.89191812	      1.42678608	     -5.21773819	     -0.00000000	      0.00000000	     -0.00000000	      0.00000000	      0.00000000	     -0.00000000	      0.00000000	     -0.00000000	     -0.00000000	      0.00000000	      0.00000000	      0.00000000	      0.00000000	     -0.00000000
      0.62000000	      1.02304544	     -7.54833167	     89.83924305	      0.17276937	      0.89117042	     -0.16731213	     36.73205375	      3.36210738	     -6.39504011	     20.31907877	      0.35463483	     -3.63941105	      0.00000000	      0.00000000	     -5.38096077	     -3.15191439	     -4.63082372	     38.44239952	      0.67094644	    -15.00478298	      0.00000000	      0.00000000	      0.90867826	      1.96995368	     -4.95075693	      0.00000000	      0.00000000	      0.00000000	      0.00000000	      0.00000000	      0.00000000	      0.00000000	      0.00000000	      0.00000000	      0.00000000	      0.00000000	      0.00000000	      0.00000000	      0.00000000
      0.63000000	      1.53875980	     -7.56092250	     89.82750117	      0.17427114	      0.89336112	     -0.18621462	     36.08588059	      3.96108236	     -6.43669064	     21.41509915	      0.37376399	     -3.33270239	      0.00000000	      0.00000000	     -2.94863565	     -4.17925608	     -4.30901556	     43.08964740	      0.75205622	    -15.77783298	      0.00000000	      0.00000000	      0.92714126	      2.49849487	     -4.66206252	      0.00000000	      0.00000000	      0.00000000	      0.00000000	      0.00000000	      0.00000000	      0.00000000	      0.00000000	      0.00000000	      0.00000000	      0.00000000	      0.00000000	      0.00000000	      0.00000000
      0.64000000	      2.06562675	     -7.47812316	     89.81141129	      0.17576678	      0.89600985	     -0.20486130	     35.19119805	      4.58705584	     -6.53383745	     22.25263448	      0.38838174	     -2.70890252	      0.00000000	      0.00000000	     -0.58868609	     -5.18133735	     -3.96239911	     47.31482768	      0.82579953	    -16.00354099	      0.00000000	      0.00000000	      0.80518123	      3.03490736	     -4.33437723	      0.00000000	      0.00000000	      0.00000000	      0.00000000	      0.00000000	      0.00000000	      0.00000000	      0.00000000	      0.00000000	      0.00000000	      0.00000000	      0.00000000	      0.00000000	      0.00000000
